<svg width="24" height="25" viewBox="0 0 24 25" fill="none" xmlns="http://www.w3.org/2000/svg">
<mask id="mask0_1_7" style="mask-type:alpha" maskUnits="userSpaceOnUse" x="0" y="0" width="24" height="25">
<rect y="0.5" width="24" height="24" fill="#D9D9D9"/>
</mask>
<g mask="url(#mask0_1_7)">
<path d="M8 17.5H13C13.2833 17.5 13.5208 17.4042 13.7125 17.2125C13.9042 17.0208 14 16.7833 14 16.5C14 16.2167 13.9042 15.9792 13.7125 15.7875C13.5208 15.5958 13.2833 15.5 13 15.5H8C7.71667 15.5 7.47917 15.5958 7.2875 15.7875C7.09583 15.9792 7 16.2167 7 16.5C7 16.7833 7.09583 17.0208 7.2875 17.2125C7.47917 17.4042 7.71667 17.5 8 17.5ZM8 13.5H16C16.2833 13.5 16.5208 13.4042 16.7125 13.2125C16.9042 13.0208 17 12.7833 17 12.5C17 12.2167 16.9042 11.9792 16.7125 11.7875C16.5208 11.5958 16.2833 11.5 16 11.5H8C7.71667 11.5 7.47917 11.5958 7.2875 11.7875C7.09583 11.9792 7 12.2167 7 12.5C7 12.7833 7.09583 13.0208 7.2875 13.2125C7.47917 13.4042 7.71667 13.5 8 13.5ZM8 9.5H16C16.2833 9.5 16.5208 9.40417 16.7125 9.2125C16.9042 9.02083 17 8.78333 17 8.5C17 8.21667 16.9042 7.97917 16.7125 7.7875C16.5208 7.59583 16.2833 7.5 16 7.5H8C7.71667 7.5 7.47917 7.59583 7.2875 7.7875C7.09583 7.97917 7 8.21667 7 8.5C7 8.78333 7.09583 9.02083 7.2875 9.2125C7.47917 9.40417 7.71667 9.5 8 9.5ZM5 21.5C4.45 21.5 3.97917 21.3042 3.5875 20.9125C3.19583 20.5208 3 20.05 3 19.5V5.5C3 4.95 3.19583 4.47917 3.5875 4.0875C3.97917 3.69583 4.45 3.5 5 3.5H19C19.55 3.5 20.0208 3.69583 20.4125 4.0875C20.8042 4.47917 21 4.95 21 5.5V19.5C21 20.05 20.8042 20.5208 20.4125 20.9125C20.0208 21.3042 19.55 21.5 19 21.5H5ZM5 19.5H19V5.5H5V19.5Z" fill="#FFFF00"/>
</g>
</svg>
