<svg width="20" height="20" viewBox="0 0 20 20" fill="none" xmlns="http://www.w3.org/2000/svg">
<mask id="mask0_1_67" style="mask-type:alpha" maskUnits="userSpaceOnUse" x="0" y="0" width="20" height="20">
<rect width="20" height="20" fill="#D9D9D9"/>
</mask>
<g mask="url(#mask0_1_67)">
<path d="M7.14502 14.4808H12.8654V13.7115H7.14502V14.4808ZM7.14502 11.1731H12.8654V10.4039H7.14502V11.1731ZM5.56094 17.3718C5.2028 17.3718 4.90012 17.2482 4.6529 17.001C4.40566 16.7537 4.28204 16.4512 4.28204 16.0933V3.90673C4.28204 3.54884 4.40566 3.24628 4.6529 2.99904C4.90012 2.75182 5.20385 2.62821 5.5641 2.62821H12.0833L15.718 6.2524V16.0898C15.718 16.45 15.5943 16.7537 15.3471 17.001C15.0999 17.2482 14.7972 17.3718 14.4391 17.3718H5.56094ZM11.7051 6.64102V3.39744H5.5641C5.4359 3.39744 5.31838 3.45085 5.21154 3.55769C5.10471 3.66452 5.05129 3.78204 5.05129 3.91025V16.0898C5.05129 16.218 5.10471 16.3355 5.21154 16.4423C5.31838 16.5491 5.4359 16.6026 5.5641 16.6026H14.4359C14.5641 16.6026 14.6816 16.5491 14.7885 16.4423C14.8953 16.3355 14.9487 16.218 14.9487 16.0898V6.64102H11.7051Z" fill="#FFD700"/>
</g>
</svg>
